<svg width="1432" height="1425" viewBox="0 0 1432 1425" fill="none" xmlns="http://www.w3.org/2000/svg">
<path fill-rule="evenodd" clip-rule="evenodd" d="M755.71 602.523L755.483 602.749C666.819 691.115 579.113 778.526 525.4 831.965C481.177 875.958 442.632 848.823 442.853 783.647L443.097 713.07L443.644 554.401C445.042 510.24 446.442 466.078 447.842 421.915C449.227 378.213 450.613 334.511 451.997 290.811C452.282 281.838 452.173 274.814 452.084 269.044V269.043C451.743 247.03 451.684 243.244 474.838 218.927L661.957 22.1874C690.425 -7.73922 739.038 -7.05325 768.283 22.1961L1002.43 256.339C1031.67 285.584 1030.25 329.069 1000.95 358.219L1000.95 358.214C944.172 414.694 849.422 509.126 755.71 602.523ZM1405.16 765.324L1192.49 977.998C1163.13 1007.35 1121.77 1013.59 1100.1 991.917L875.832 767.647C854.163 745.978 860.393 704.611 889.751 675.257L1102.42 462.584C1131.78 433.228 1173.15 426.996 1194.81 448.665L1419.08 672.935C1440.75 694.604 1434.52 735.966 1405.16 765.324ZM985.418 1185.18L772.745 1397.85C743.391 1427.2 702.024 1433.44 680.355 1411.77L456.085 1187.5C434.416 1165.83 440.651 1124.46 470.004 1095.11L682.678 882.436C712.036 853.083 753.398 846.848 775.067 868.517L999.337 1092.79C1021.01 1114.46 1014.78 1155.82 985.418 1185.18ZM306.488 945.924L304.304 698.921V698.917L302.72 479.249C302.438 440.01 266.641 420.356 238.898 448.102L20.8153 666.185C-6.94059 693.937 -6.93625 739.337 20.8153 767.089L222.643 968.917C250.373 996.651 306.836 985.176 306.488 945.924Z" fill="#DFC13F"/>
</svg>
