<?xml version="1.0" encoding="UTF-8"?>
<!DOCTYPE svg PUBLIC "-//W3C//DTD SVG 1.0//EN" "http://www.w3.org/TR/2001/REC-SVG-20010904/DTD/svg10.dtd">
<!-- Creator: CorelDRAW 2020 (64 Bit) -->
<svg xmlns="http://www.w3.org/2000/svg" xml:space="preserve" width="11.6929in" height="8.26772in" version="1.0" style="shape-rendering:geometricPrecision; text-rendering:geometricPrecision; image-rendering:optimizeQuality; fill-rule:evenodd; clip-rule:evenodd"
viewBox="0 0 11692.91 8267.72"
 xmlns:xlink="http://www.w3.org/1999/xlink"
 xmlns:xodm="http://www.corel.com/coreldraw/odm/2003">
 <defs>
  <style type="text/css">
   <![CDATA[
    .fil1 {fill:#DFC13F}
    .fil0 {fill:#915D47;fill-rule:nonzero}
   ]]>
  </style>
 </defs>
 <g id="Camada_x0020_1">
  <metadata id="CorelCorpID_0Corel-Layer"/>
  <path class="fil0" d="M3258.95 5812.34l-236.81 0c-6.03,0 -12.58,-0.69 -19.56,-2.15 -6.98,-1.38 -13.88,-3.62 -20.69,-6.72 -6.81,-3.02 -13.36,-6.89 -19.56,-11.72 -6.29,-4.74 -11.72,-10.6 -16.54,-17.41 -4.83,-6.81 -8.62,-14.74 -11.46,-23.7 -2.93,-9.05 -4.31,-19.22 -4.31,-30.42l0 -177.78c0,-6.04 0.69,-12.58 2.15,-19.56 1.38,-6.98 3.62,-13.87 6.64,-20.69 3.02,-6.81 6.98,-13.35 11.89,-19.56 4.91,-6.2 10.69,-11.72 17.58,-16.55 6.81,-4.83 14.65,-8.62 23.61,-11.46 8.88,-2.93 18.96,-4.31 30.25,-4.31l236.81 0 0 65.58 -236.81 0c-8.62,0 -15.17,2.33 -19.65,6.89 -4.57,4.48 -6.89,11.2 -6.89,20.17l0 177.27c0,8.36 2.33,14.91 6.98,19.56 4.65,4.57 11.11,6.9 19.56,6.9l236.81 0 0 65.67zm417.35 0l-65.67 0 0 -88.85 -230.78 0 0 88.85 -65.67 0 0 -181.06c0,-26.37 4.57,-50.76 13.61,-72.91 9.13,-22.23 21.72,-41.37 37.92,-57.31 16.12,-16.03 35.25,-28.44 57.31,-37.4 22.06,-8.87 46.1,-13.36 72.21,-13.36l147.97 0c4.48,0 8.79,0.86 12.84,2.5 4.05,1.72 7.59,4.05 10.6,7.07 3.02,3.02 5.43,6.55 7.07,10.6 1.72,4.05 2.58,8.36 2.58,12.93l0 328.94zm-296.45 -154.52l230.78 0 0 -141.93 -115.39 0c-2.07,0 -6.29,0.34 -12.75,0.95 -6.46,0.6 -13.96,2.07 -22.49,4.39 -8.44,2.33 -17.41,5.94 -26.89,10.86 -9.39,4.91 -18.1,11.63 -26.03,20.17 -7.84,8.62 -14.39,19.39 -19.56,32.23 -5.08,12.84 -7.67,28.44 -7.67,46.8l0 26.54zm259.57 -288.69l-131.85 47.14 -17.41 -37.83 121.43 -70.67 27.83 61.36zm460.96 336.69c0,12.93 -1.64,24.56 -4.91,34.9 -3.28,10.43 -7.58,19.48 -12.93,27.41 -5.43,7.93 -11.72,14.65 -18.96,20.25 -7.24,5.52 -14.74,10.08 -22.49,13.61 -7.76,3.54 -15.6,6.12 -23.61,7.84 -8.02,1.64 -15.51,2.5 -22.58,2.5l-253.28 0 0 -65.67 253.28 0c12.58,0 22.41,-3.71 29.39,-11.12 6.98,-7.41 10.51,-17.32 10.51,-29.73 0,-6.12 -0.94,-11.63 -2.76,-16.72 -1.9,-5 -4.57,-9.39 -8.02,-13.1 -3.44,-3.71 -7.67,-6.55 -12.58,-8.62 -5,-1.98 -10.51,-3.02 -16.54,-3.02l-150.98 0c-10.6,0 -22.06,-1.9 -34.3,-5.69 -12.32,-3.79 -23.7,-9.82 -34.21,-18.27 -10.6,-8.44 -19.3,-19.47 -26.28,-33.09 -6.98,-13.61 -10.51,-30.25 -10.51,-49.98 0,-19.73 3.53,-36.28 10.51,-49.89 6.98,-13.53 15.69,-24.56 26.28,-33.01 10.52,-8.53 21.89,-14.65 34.21,-18.44 12.24,-3.79 23.7,-5.69 34.3,-5.69l223.46 0 0 65.58 -223.46 0c-12.5,0 -22.15,3.79 -29.13,11.37 -6.98,7.58 -10.52,17.58 -10.52,30.07 0,12.58 3.54,22.58 10.52,29.91 6.98,7.32 16.63,11.03 29.13,11.03l150.98 0 0.52 0c7.07,0.17 14.56,1.12 22.41,2.84 7.93,1.81 15.86,4.57 23.61,8.19 7.84,3.7 15.34,8.44 22.41,14.04 7.07,5.69 13.36,12.41 18.79,20.34 5.43,7.93 9.82,16.98 13.01,27.23 3.19,10.26 4.74,21.89 4.74,34.9zm402.45 0c0,12.93 -1.64,24.56 -4.91,34.9 -3.28,10.43 -7.58,19.48 -12.93,27.41 -5.43,7.93 -11.72,14.65 -18.96,20.25 -7.24,5.52 -14.74,10.08 -22.49,13.61 -7.76,3.54 -15.6,6.12 -23.61,7.84 -8.02,1.64 -15.51,2.5 -22.58,2.5l-253.28 0 0 -65.67 253.28 0c12.58,0 22.41,-3.71 29.39,-11.12 6.98,-7.41 10.51,-17.32 10.51,-29.73 0,-6.12 -0.94,-11.63 -2.76,-16.72 -1.9,-5 -4.57,-9.39 -8.02,-13.1 -3.44,-3.71 -7.67,-6.55 -12.58,-8.62 -5,-1.98 -10.51,-3.02 -16.54,-3.02l-150.98 0c-10.6,0 -22.06,-1.9 -34.3,-5.69 -12.32,-3.79 -23.7,-9.82 -34.21,-18.27 -10.6,-8.44 -19.3,-19.47 -26.28,-33.09 -6.98,-13.61 -10.51,-30.25 -10.51,-49.98 0,-19.73 3.53,-36.28 10.51,-49.89 6.98,-13.53 15.69,-24.56 26.28,-33.01 10.52,-8.53 21.89,-14.65 34.21,-18.44 12.24,-3.79 23.7,-5.69 34.3,-5.69l223.46 0 0 65.58 -223.46 0c-12.5,0 -22.15,3.79 -29.13,11.37 -6.98,7.58 -10.52,17.58 -10.52,30.07 0,12.58 3.54,22.58 10.52,29.91 6.98,7.32 16.63,11.03 29.13,11.03l150.98 0 0.52 0c7.07,0.17 14.56,1.12 22.41,2.84 7.93,1.81 15.86,4.57 23.61,8.19 7.84,3.7 15.34,8.44 22.41,14.04 7.07,5.69 13.36,12.41 18.79,20.34 5.43,7.93 9.82,16.98 13.01,27.23 3.19,10.26 4.74,21.89 4.74,34.9zm120.74 106.52l-65.67 0 0 -362.03 65.67 0 0 362.03zm432 0l-65.67 0 0 -88.85 -230.78 0 0 88.85 -65.67 0 0 -181.06c0,-26.37 4.57,-50.76 13.61,-72.91 9.13,-22.23 21.72,-41.37 37.92,-57.31 16.12,-16.03 35.25,-28.44 57.31,-37.4 22.06,-8.87 46.1,-13.36 72.21,-13.36l147.97 0c4.48,0 8.79,0.86 12.84,2.5 4.05,1.72 7.59,4.05 10.6,7.07 3.02,3.02 5.43,6.55 7.07,10.6 1.72,4.05 2.58,8.36 2.58,12.93l0 328.94zm-296.45 -154.52l230.78 0 0 -141.93 -115.39 0c-2.07,0 -6.29,0.34 -12.75,0.95 -6.46,0.6 -13.96,2.07 -22.49,4.39 -8.44,2.33 -17.41,5.94 -26.89,10.86 -9.39,4.91 -18.1,11.63 -26.03,20.17 -7.84,8.62 -14.39,19.39 -19.56,32.23 -5.08,12.84 -7.67,28.44 -7.67,46.8l0 26.54zm902.62 -85.83c0,14.99 -1.9,28.35 -5.6,40.16 -3.7,11.72 -8.7,22.15 -15,31.2 -6.29,8.96 -13.61,16.63 -21.89,23.09 -8.19,6.38 -16.81,11.63 -25.85,15.77 -8.96,4.13 -18.1,7.07 -27.23,8.96 -9.22,1.81 -17.84,2.76 -25.94,2.76l137.11 118.41 -101.43 0 -136.85 -118.41 -47.23 0 0 -65.67 148.4 0c8.28,-0.69 15.86,-2.41 22.67,-5.17 6.81,-2.76 12.67,-6.55 17.67,-11.2 4.91,-4.74 8.79,-10.43 11.46,-17.06 2.67,-6.63 4.05,-14.22 4.05,-22.83l0 -41.45c0,-3.7 -0.43,-6.46 -1.38,-8.44 -0.95,-1.9 -2.15,-3.36 -3.53,-4.22 -1.46,-0.94 -2.93,-1.55 -4.57,-1.72 -1.64,-0.17 -3.1,-0.26 -4.4,-0.26l-216.65 0 0 296.45 -65.67 0 0 -328.94c0,-4.57 0.86,-8.88 2.59,-12.93 1.63,-4.05 3.96,-7.58 6.89,-10.6 2.93,-3.02 6.46,-5.34 10.51,-7.07 4.05,-1.64 8.44,-2.5 13.1,-2.5l249.22 0c14.65,0 26.98,2.67 37.06,7.93 10.17,5.34 18.35,11.98 24.65,19.99 6.29,7.93 10.86,16.55 13.61,25.85 2.85,9.22 4.22,17.93 4.22,26.03l0 41.88zm445.88 93.93c0,22.06 -3.79,42.31 -11.37,60.84 -7.58,18.53 -18.1,34.47 -31.54,47.92 -13.53,13.53 -29.47,23.96 -47.92,31.45 -18.35,7.5 -38.43,11.29 -60.15,11.29l-88.94 0c-21.72,0 -41.8,-3.79 -60.32,-11.29 -18.53,-7.5 -34.47,-17.93 -47.91,-31.45 -13.53,-13.44 -24.04,-29.39 -31.71,-47.92 -7.67,-18.53 -11.46,-38.78 -11.46,-60.84l0 -69.2c0,-21.89 3.8,-42.14 11.46,-60.76 7.67,-18.53 18.18,-34.56 31.71,-47.91 13.44,-13.36 29.39,-23.87 47.91,-31.46 18.53,-7.58 38.61,-11.37 60.32,-11.37l88.94 0c21.72,0 41.8,3.79 60.15,11.37 18.44,7.58 34.39,18.1 47.92,31.46 13.44,13.35 23.96,29.39 31.54,47.91 7.58,18.61 11.37,38.87 11.37,60.76l0 69.2zm-65.67 -69.2c0,-12.93 -2.07,-24.73 -6.2,-35.25 -4.14,-10.51 -9.91,-19.48 -17.41,-26.97 -7.5,-7.5 -16.46,-13.27 -27.06,-17.41 -10.51,-4.13 -22.06,-6.2 -34.64,-6.2l-88.94 0c-12.75,0 -24.39,2.07 -34.9,6.2 -10.51,4.14 -19.56,9.91 -27.15,17.41 -7.58,7.5 -13.44,16.46 -17.58,26.97 -4.14,10.52 -6.2,22.32 -6.2,35.25l0 69.2c0,12.93 2.07,24.65 6.2,35.16 4.14,10.52 10,19.56 17.58,27.06 7.59,7.5 16.63,13.27 27.15,17.41 10.52,4.14 22.15,6.2 34.9,6.2l88.42 0c12.75,0 24.39,-2.07 34.98,-6.2 10.52,-4.14 19.56,-9.91 27.06,-17.41 7.58,-7.5 13.44,-16.54 17.58,-27.06 4.14,-10.51 6.2,-22.23 6.2,-35.16l0 -69.2zm491.81 64.11c0,22.06 -3.88,42.31 -11.46,60.84 -7.67,18.53 -18.27,34.47 -31.71,47.83 -13.44,13.44 -29.47,23.87 -48,31.46 -18.53,7.58 -38.61,11.37 -60.32,11.37l-177.27 0c-4.65,0 -9.05,-0.86 -13.1,-2.5 -4.05,-1.72 -7.5,-4.05 -10.52,-6.98 -2.93,-2.93 -5.26,-6.46 -6.89,-10.43 -1.72,-4.05 -2.5,-8.44 -2.5,-13.19l0 -295.85c0,-4.57 0.78,-8.88 2.5,-12.93 1.64,-4.05 3.96,-7.58 6.89,-10.6 3.02,-3.02 6.46,-5.34 10.52,-7.07 4.05,-1.64 8.44,-2.5 13.1,-2.5l177.27 0c21.72,0 41.8,3.79 60.32,11.38 18.53,7.58 34.56,18.01 48,31.37 13.44,13.44 24.04,29.39 31.71,48 7.59,18.61 11.46,38.87 11.46,60.76l0 59.03zm-65.67 -59.03c0,-12.84 -2.07,-24.56 -6.2,-35.16 -4.14,-10.6 -9.91,-19.65 -17.49,-27.15 -7.59,-7.41 -16.63,-13.27 -27.15,-17.41 -10.52,-4.14 -22.24,-6.2 -34.99,-6.2l-144.69 0 0 230.78 144.69 0c12.75,0 24.47,-2.07 34.99,-6.12 10.51,-4.13 19.56,-10 27.15,-17.49 7.58,-7.5 13.35,-16.46 17.49,-26.97 4.14,-10.52 6.2,-22.24 6.2,-35.25l0 -59.03zm491.81 -29.81c0,14.99 -1.9,28.35 -5.6,40.16 -3.7,11.72 -8.7,22.15 -15,31.2 -6.29,8.96 -13.61,16.63 -21.89,23.09 -8.19,6.38 -16.81,11.63 -25.85,15.77 -8.96,4.13 -18.1,7.07 -27.23,8.96 -9.22,1.81 -17.84,2.76 -25.94,2.76l137.11 118.41 -101.43 0 -136.85 -118.41 -47.23 0 0 -65.67 148.4 0c8.28,-0.69 15.86,-2.41 22.67,-5.17 6.81,-2.76 12.67,-6.55 17.67,-11.2 4.91,-4.74 8.79,-10.43 11.46,-17.06 2.67,-6.63 4.05,-14.22 4.05,-22.83l0 -41.45c0,-3.7 -0.43,-6.46 -1.38,-8.44 -0.95,-1.9 -2.15,-3.36 -3.53,-4.22 -1.46,-0.94 -2.93,-1.55 -4.57,-1.72 -1.64,-0.17 -3.1,-0.26 -4.4,-0.26l-216.65 0 0 296.45 -65.67 0 0 -328.94c0,-4.57 0.86,-8.88 2.59,-12.93 1.63,-4.05 3.96,-7.58 6.89,-10.6 2.93,-3.02 6.46,-5.34 10.51,-7.07 4.05,-1.64 8.44,-2.5 13.1,-2.5l249.22 0c14.65,0 26.98,2.67 37.06,7.93 10.17,5.34 18.35,11.98 24.65,19.99 6.29,7.93 10.86,16.55 13.61,25.85 2.85,9.22 4.22,17.93 4.22,26.03l0 41.88zm132.02 240.35l-65.67 0 0 -362.03 65.67 0 0 362.03zm433.99 -33.09c0,4.74 -0.86,9.13 -2.5,13.19 -1.72,3.96 -4.05,7.5 -6.98,10.43 -2.93,2.93 -6.46,5.26 -10.52,6.98 -3.96,1.64 -8.36,2.5 -13.1,2.5l-236.81 0c-6.03,0 -12.58,-0.69 -19.56,-2.15 -6.98,-1.38 -13.88,-3.62 -20.69,-6.72 -6.81,-3.02 -13.36,-6.89 -19.56,-11.72 -6.29,-4.74 -11.72,-10.6 -16.54,-17.41 -4.83,-6.81 -8.62,-14.74 -11.46,-23.7 -2.93,-9.05 -4.31,-19.22 -4.31,-30.42l0 -177.78c0,-6.04 0.69,-12.58 2.15,-19.56 1.38,-6.98 3.62,-13.87 6.64,-20.69 3.02,-6.81 6.98,-13.35 11.89,-19.56 4.91,-6.2 10.69,-11.72 17.58,-16.55 6.81,-4.83 14.65,-8.62 23.61,-11.46 8.88,-2.93 18.96,-4.31 30.25,-4.31l266.89 0 0 65.58 -266.89 0c-8.62,0 -15.17,2.33 -19.65,6.89 -4.57,4.48 -6.89,11.2 -6.89,20.17l0 177.27c0,8.36 2.33,14.91 6.98,19.56 4.65,4.57 11.11,6.9 19.56,6.9l204.24 0 0 -82.3 -174.68 0 0 -66.1 207.26 0c4.74,0 9.14,0.86 13.1,2.58 4.05,1.81 7.59,4.22 10.52,7.24 2.93,3.02 5.26,6.55 6.98,10.43 1.64,3.96 2.5,8.27 2.5,12.75l0 147.97zm423.13 0c0,4.74 -0.86,9.13 -2.59,13.19 -1.64,3.96 -4.05,7.5 -7.07,10.43 -3.02,2.93 -6.55,5.26 -10.6,6.98 -4.05,1.64 -8.27,2.5 -12.84,2.5l-147.97 0c-13.96,0 -28.09,-1.55 -42.4,-4.57 -14.31,-3.02 -28.18,-7.67 -41.54,-13.96 -13.36,-6.38 -25.94,-14.39 -37.74,-24.13 -11.81,-9.74 -22.06,-21.37 -30.94,-34.73 -8.79,-13.36 -15.77,-28.7 -20.85,-45.93 -5,-17.24 -7.59,-36.54 -7.59,-57.74l0 -180.97 65.67 0 0 180.97c0,18.53 2.58,34.21 7.76,46.97 5.08,12.84 11.63,23.52 19.56,32.06 7.84,8.62 16.54,15.34 25.94,20.25 9.48,4.83 18.44,8.44 26.89,10.86 8.53,2.33 16.03,3.79 22.49,4.4 6.46,0.6 10.77,0.86 12.75,0.86l115.39 0 0 -296.37 65.67 0 0 328.94zm373.92 -114.87l-207.34 0 0 -66.1 207.34 0 0 66.1zm29.47 147.96l-236.81 0c-9.05,0 -18.96,-1.64 -29.73,-4.83 -10.77,-3.19 -20.77,-8.44 -29.99,-15.77 -9.13,-7.33 -16.8,-16.81 -22.92,-28.53 -6.2,-11.72 -9.22,-26.02 -9.22,-43l0 -236.81c0,-4.57 0.86,-8.88 2.5,-12.93 1.72,-4.05 3.96,-7.58 6.98,-10.6 2.93,-3.02 6.37,-5.34 10.43,-7.07 4.05,-1.64 8.44,-2.5 13.19,-2.5l295.59 0 0 65.58 -263.01 0 0 204.33c0,8.53 2.24,15.08 6.81,19.65 4.48,4.57 11.2,6.81 19.91,6.81l236.3 0 0 65.67zm410.03 -106.52c0,12.93 -1.64,24.56 -4.91,34.9 -3.28,10.43 -7.58,19.48 -12.93,27.41 -5.43,7.93 -11.72,14.65 -18.96,20.25 -7.24,5.52 -14.74,10.08 -22.49,13.61 -7.76,3.54 -15.6,6.12 -23.61,7.84 -8.02,1.64 -15.51,2.5 -22.58,2.5l-253.28 0 0 -65.67 253.28 0c12.58,0 22.41,-3.71 29.39,-11.12 6.98,-7.41 10.51,-17.32 10.51,-29.73 0,-6.12 -0.94,-11.63 -2.76,-16.72 -1.9,-5 -4.57,-9.39 -8.02,-13.1 -3.44,-3.71 -7.67,-6.55 -12.58,-8.62 -5,-1.98 -10.51,-3.02 -16.54,-3.02l-150.98 0c-10.6,0 -22.06,-1.9 -34.3,-5.69 -12.32,-3.79 -23.7,-9.82 -34.21,-18.27 -10.6,-8.44 -19.3,-19.47 -26.28,-33.09 -6.98,-13.61 -10.51,-30.25 -10.51,-49.98 0,-19.73 3.53,-36.28 10.51,-49.89 6.98,-13.53 15.69,-24.56 26.28,-33.01 10.52,-8.53 21.89,-14.65 34.21,-18.44 12.24,-3.79 23.7,-5.69 34.3,-5.69l223.46 0 0 65.58 -223.46 0c-12.5,0 -22.15,3.79 -29.13,11.37 -6.98,7.58 -10.52,17.58 -10.52,30.07 0,12.58 3.54,22.58 10.52,29.91 6.98,7.32 16.63,11.03 29.13,11.03l150.98 0 0.52 0c7.07,0.17 14.56,1.12 22.41,2.84 7.93,1.81 15.86,4.57 23.61,8.19 7.84,3.7 15.34,8.44 22.41,14.04 7.07,5.69 13.36,12.41 18.79,20.34 5.43,7.93 9.82,16.98 13.01,27.23 3.19,10.26 4.74,21.89 4.74,34.9z"/>
  <path class="fil0" d="M3467.84 6309.5c19.83,0 37.22,-5.03 52.17,-15.08 14.94,-10.06 26.05,-23.6 33.31,-40.64l33.1 0c-9.22,26.26 -24.44,46.93 -45.67,62.01 -22.63,16.2 -49.3,24.3 -80.03,24.3 -40.5,0 -73.32,-13.83 -98.46,-41.48 -23.74,-26.54 -35.61,-60.06 -35.61,-100.56 0,-40.5 11.87,-74.02 35.61,-100.56 25.14,-27.65 57.96,-41.48 98.46,-41.48 30.73,0 57.4,8.1 80.03,24.3 21.23,15.08 36.45,35.75 45.67,62.01l-33.1 0c-7.26,-17.04 -18.37,-30.59 -33.31,-40.64 -14.94,-10.06 -32.33,-15.08 -52.17,-15.08 -19.83,0 -36.31,2.86 -49.44,8.59 -13.13,5.72 -24.16,13.61 -33.1,23.67 -18.16,20.39 -27.24,46.79 -27.24,79.19 0,32.4 9.08,58.8 27.24,79.19 18.99,21.51 46.51,32.26 82.54,32.26zm249.72 -185.61c31.28,0 56.7,10.47 76.26,31.42 18.43,20.11 27.65,45.67 27.65,76.68 0,31 -9.22,56.56 -27.65,76.68 -19.56,20.95 -44.97,31.42 -76.26,31.42 -31.29,0 -56.7,-10.47 -76.26,-31.42 -18.43,-20.11 -27.65,-45.67 -27.65,-76.68 0,-31 9.22,-56.56 27.65,-76.68 19.56,-20.95 44.97,-31.42 76.26,-31.42zm0 187.71c22.62,0 40.5,-7.82 53.63,-23.46 12.57,-14.8 18.85,-33.52 18.85,-56.15 0,-22.63 -6.28,-41.34 -18.85,-56.15 -13.13,-15.64 -31.01,-23.46 -53.63,-23.46 -22.63,0 -40.5,7.82 -53.63,23.46 -12.57,14.8 -18.85,33.52 -18.85,56.15 0,22.63 6.29,41.34 18.85,56.15 13.13,15.64 31.01,23.46 53.63,23.46zm176.81 -184.36l0 32.68c7.54,-10.06 16.76,-18.57 27.65,-25.56 10.89,-6.98 23.33,-10.47 37.29,-10.47 13.97,0 25.98,1.95 36.04,5.87 10.06,3.91 18.85,9.78 26.39,17.59 17.32,17.04 25.98,39.53 25.98,67.46l0 121.93 -31.43 0 0 -121.09c0,-19.27 -5.45,-34.63 -16.34,-46.09 -10.89,-11.45 -25,-17.18 -42.32,-17.18 -17.59,0 -32.54,5.87 -44.83,17.6 -12.29,12.01 -18.44,27.37 -18.44,46.09l0 120.67 -31.42 0 0 -209.5 31.42 0zm228.35 209.5l0 -181.84 -42.74 0 0 -27.65 42.74 0 0 -75 31.43 0 0 75 48.19 0 0 27.65 -48.19 0 0 181.84 -31.43 0zm277.37 -33.52c-16.76,24.58 -41.76,36.87 -75,36.87 -30.17,0 -54.75,-10.47 -73.74,-31.42 -18.43,-20.67 -27.65,-46.23 -27.65,-76.68 0,-30.44 9.22,-56 27.65,-76.68 19,-20.95 44.28,-31.42 75.84,-31.42 31.56,0 55.87,12.43 72.91,37.29l0 -33.94 31.43 0 0 209.5 -31.43 0 0 -33.52zm-70.81 8.38c22.63,0 40.5,-7.82 53.63,-23.46 12.57,-14.8 18.85,-33.52 18.85,-56.15 0,-22.63 -6.29,-41.34 -18.85,-56.15 -13.13,-15.64 -31.01,-23.46 -53.63,-23.46 -22.35,0 -40.5,7.82 -54.47,23.46 -13.13,14.8 -19.69,33.52 -19.69,56.15 0,22.63 6.57,41.34 19.69,56.15 13.97,15.64 32.12,23.46 54.47,23.46zm188.13 -150.42c17.04,-24.86 42.04,-37.29 75,-37.29 30.17,0 54.61,10.47 73.32,31.42 18.72,20.67 28.07,46.23 28.07,76.68 0,30.44 -9.36,56 -28.07,76.68 -18.71,20.95 -43.92,31.42 -75.63,31.42 -31.7,0 -55.94,-12.29 -72.7,-36.87l0 33.52 -31.42 0 0 -293.3 31.42 0 0 117.74zm70.81 150.42c22.35,0 40.5,-7.82 54.47,-23.46 13.13,-14.8 19.69,-33.52 19.69,-56.15 0,-22.63 -6.56,-41.34 -19.69,-56.15 -13.96,-15.64 -32.12,-23.46 -54.47,-23.46 -22.63,0 -40.5,7.82 -53.63,23.46 -12.57,14.8 -18.85,33.52 -18.85,56.15 0,22.63 6.28,41.34 18.85,56.15 13.13,15.64 31,23.46 53.63,23.46zm146.65 -184.36l31.42 0 0 209.5 -31.42 0 0 -209.5zm32.68 -76.26l0 41.06 -33.94 0 0 -41.06 33.94 0zm84.63 285.75l-31.42 0 0 -293.3 31.42 0 0 293.3zm54.47 -209.5l31.42 0 0 209.5 -31.42 0 0 -209.5zm32.68 -76.26l0 41.06 -33.94 0 0 -41.06 33.94 0zm216.62 252.23c-16.76,24.58 -41.76,36.87 -75,36.87 -30.17,0 -54.75,-10.47 -73.74,-31.42 -18.43,-20.67 -27.65,-46.23 -27.65,-76.68 0,-30.44 9.22,-56 27.65,-76.68 19,-20.95 44.28,-31.42 75.84,-31.42 31.56,0 55.87,12.43 72.91,37.29l0 -117.74 31.43 0 0 293.3 -31.43 0 0 -33.52zm-70.81 8.38c22.63,0 40.5,-7.82 53.63,-23.46 12.57,-14.8 18.85,-33.52 18.85,-56.15 0,-22.63 -6.29,-41.34 -18.85,-56.15 -13.13,-15.64 -31.01,-23.46 -53.63,-23.46 -22.35,0 -40.5,7.82 -54.47,23.46 -13.13,14.8 -19.69,33.52 -19.69,56.15 0,22.63 6.57,41.34 19.69,56.15 13.97,15.64 32.12,23.46 54.47,23.46zm320.11 -8.38c-16.76,24.58 -41.76,36.87 -75,36.87 -30.17,0 -54.75,-10.47 -73.74,-31.42 -18.43,-20.67 -27.65,-46.23 -27.65,-76.68 0,-30.44 9.22,-56 27.65,-76.68 19,-20.95 44.28,-31.42 75.84,-31.42 31.56,0 55.87,12.43 72.91,37.29l0 -33.94 31.43 0 0 209.5 -31.43 0 0 -33.52zm-70.81 8.38c22.63,0 40.5,-7.82 53.63,-23.46 12.57,-14.8 18.85,-33.52 18.85,-56.15 0,-22.63 -6.29,-41.34 -18.85,-56.15 -13.13,-15.64 -31.01,-23.46 -53.63,-23.46 -22.35,0 -40.5,7.82 -54.47,23.46 -13.13,14.8 -19.69,33.52 -19.69,56.15 0,22.63 6.57,41.34 19.69,56.15 13.97,15.64 32.12,23.46 54.47,23.46zm320.11 -8.38c-16.76,24.58 -41.76,36.87 -75,36.87 -30.17,0 -54.75,-10.47 -73.74,-31.42 -18.43,-20.67 -27.65,-46.23 -27.65,-76.68 0,-30.44 9.22,-56 27.65,-76.68 19,-20.95 44.28,-31.42 75.84,-31.42 31.56,0 55.87,12.43 72.91,37.29l0 -117.74 31.43 0 0 293.3 -31.43 0 0 -33.52zm-70.81 8.38c22.63,0 40.5,-7.82 53.63,-23.46 12.57,-14.8 18.85,-33.52 18.85,-56.15 0,-22.63 -6.29,-41.34 -18.85,-56.15 -13.13,-15.64 -31.01,-23.46 -53.63,-23.46 -22.35,0 -40.5,7.82 -54.47,23.46 -13.13,14.8 -19.69,33.52 -19.69,56.15 0,22.63 6.57,41.34 19.69,56.15 13.97,15.64 32.12,23.46 54.47,23.46zm250.14 0c28.21,0 48.46,-11.73 60.76,-35.2l34.35 0c-7.26,18.99 -18.78,34.36 -34.57,46.09 -15.78,11.73 -36.1,17.59 -60.96,17.59 -31.57,0 -57.26,-10.47 -77.09,-31.42 -19.28,-20.39 -28.91,-45.95 -28.91,-76.68 0,-31 9.22,-56.56 27.65,-76.68 19.56,-20.95 44.97,-31.42 76.26,-31.42 31.28,0 56.7,10.47 76.26,31.42 18.43,20.11 27.65,45.67 27.65,76.68l0 12.57 -175.56 0c2.24,19.27 9.92,35.19 23.04,47.76 13.41,12.85 30.45,19.28 51.12,19.28zm-2.51 -159.22c-19.28,0 -35.48,6.01 -48.61,18.02 -12.29,11.45 -19.83,26.39 -22.63,44.83l142.46 0c-2.8,-18.44 -10.33,-33.38 -22.63,-44.83 -13.13,-12.01 -29.33,-18.02 -48.6,-18.02zm325.13 159.22c28.21,0 48.46,-11.73 60.76,-35.2l34.35 0c-7.26,18.99 -18.78,34.36 -34.57,46.09 -15.78,11.73 -36.1,17.59 -60.96,17.59 -31.57,0 -57.26,-10.47 -77.09,-31.42 -19.28,-20.39 -28.91,-45.95 -28.91,-76.68 0,-31 9.22,-56.56 27.65,-76.68 19.56,-20.95 44.97,-31.42 76.26,-31.42 31.28,0 56.7,10.47 76.26,31.42 18.43,20.11 27.65,45.67 27.65,76.68l0 12.57 -175.56 0c2.24,19.27 9.92,35.19 23.04,47.76 13.41,12.85 30.45,19.28 51.12,19.28zm-2.51 -159.22c-19.28,0 -35.48,6.01 -48.61,18.02 -12.29,11.45 -19.83,26.39 -22.63,44.83l142.46 0c-2.8,-18.44 -10.33,-33.38 -22.63,-44.83 -13.13,-12.01 -29.33,-18.02 -48.6,-18.02zm480.58 184.36l-34.78 0 -33.94 -80.44 -137.43 0 -33.94 80.44 -34.78 0 117.74 -277.37 39.39 0 117.74 277.37zm-80.86 -109.36l-56.57 -135.33 -56.56 135.33 113.13 0zm232.54 -43.99c-2.79,-21.79 -20.32,-32.68 -52.58,-32.68 -32.26,0 -48.39,10.06 -48.39,30.17 0,8.38 3.42,14.74 10.26,19.07 6.85,4.33 15.43,7.89 25.77,10.68 10.34,2.8 21.58,5.38 33.73,7.75 12.15,2.37 23.39,5.73 33.73,10.06 10.33,4.33 18.93,10.27 25.77,17.81 6.84,7.54 10.26,17.88 10.26,31.01 0,20.39 -7.68,35.96 -23.04,46.72 -15.36,10.76 -36.17,16.13 -62.43,16.13 -27.93,0 -50.14,-6.98 -66.62,-20.95 -15.08,-12.29 -23.18,-28.35 -24.3,-48.19l32.68 0c1.95,19.28 12.85,32.26 32.68,38.97 7.26,2.23 14.45,3.35 21.58,3.35 7.12,0 13.76,-0.42 19.9,-1.26 6.15,-0.84 12.15,-2.37 18.02,-4.61 13.41,-5.31 20.11,-14.39 20.11,-27.23 0,-8.66 -3.42,-15.3 -10.26,-19.9 -6.84,-4.61 -15.43,-8.38 -25.77,-11.31 -10.33,-2.93 -21.58,-5.59 -33.73,-7.96 -12.15,-2.37 -23.39,-5.66 -33.73,-9.85 -10.33,-4.19 -18.93,-9.92 -25.77,-17.18 -6.85,-7.26 -10.27,-17.32 -10.27,-30.17 0,-18.99 6.91,-33.73 20.74,-44.2 13.83,-10.48 34.29,-15.71 61.38,-15.71 25.7,0 45.95,6.14 60.76,18.43 12.29,10.33 19.41,24.02 21.37,41.06l-31.84 0zm201.95 0c-2.79,-21.79 -20.32,-32.68 -52.58,-32.68 -32.26,0 -48.39,10.06 -48.39,30.17 0,8.38 3.42,14.74 10.26,19.07 6.85,4.33 15.43,7.89 25.77,10.68 10.34,2.8 21.58,5.38 33.73,7.75 12.15,2.37 23.39,5.73 33.73,10.06 10.33,4.33 18.93,10.27 25.77,17.81 6.84,7.54 10.26,17.88 10.26,31.01 0,20.39 -7.68,35.96 -23.04,46.72 -15.36,10.76 -36.17,16.13 -62.43,16.13 -27.93,0 -50.14,-6.98 -66.62,-20.95 -15.08,-12.29 -23.18,-28.35 -24.3,-48.19l32.68 0c1.95,19.28 12.85,32.26 32.68,38.97 7.26,2.23 14.45,3.35 21.58,3.35 7.12,0 13.76,-0.42 19.9,-1.26 6.15,-0.84 12.15,-2.37 18.02,-4.61 13.41,-5.31 20.11,-14.39 20.11,-27.23 0,-8.66 -3.42,-15.3 -10.26,-19.9 -6.84,-4.61 -15.43,-8.38 -25.77,-11.31 -10.33,-2.93 -21.58,-5.59 -33.73,-7.96 -12.15,-2.37 -23.39,-5.66 -33.73,-9.85 -10.33,-4.19 -18.93,-9.92 -25.77,-17.18 -6.85,-7.26 -10.27,-17.32 -10.27,-30.17 0,-18.99 6.91,-33.73 20.74,-44.2 13.83,-10.48 34.29,-15.71 61.38,-15.71 25.7,0 45.95,6.14 60.76,18.43 12.29,10.33 19.41,24.02 21.37,41.06l-31.84 0zm172.2 128.21c28.21,0 48.46,-11.73 60.76,-35.2l34.35 0c-7.26,18.99 -18.78,34.36 -34.57,46.09 -15.78,11.73 -36.1,17.59 -60.96,17.59 -31.57,0 -57.26,-10.47 -77.09,-31.42 -19.28,-20.39 -28.91,-45.95 -28.91,-76.68 0,-31 9.22,-56.56 27.65,-76.68 19.56,-20.95 44.97,-31.42 76.26,-31.42 31.28,0 56.7,10.47 76.26,31.42 18.43,20.11 27.65,45.67 27.65,76.68l0 12.57 -175.56 0c2.24,19.27 9.92,35.19 23.04,47.76 13.41,12.85 30.45,19.28 51.12,19.28zm-2.51 -159.22c-19.28,0 -35.48,6.01 -48.61,18.02 -12.29,11.45 -19.83,26.39 -22.63,44.83l142.46 0c-2.8,-18.44 -10.33,-33.38 -22.63,-44.83 -13.13,-12.01 -29.33,-18.02 -48.6,-18.02zm265.64 31.01c-2.79,-21.79 -20.32,-32.68 -52.58,-32.68 -32.26,0 -48.39,10.06 -48.39,30.17 0,8.38 3.42,14.74 10.26,19.07 6.85,4.33 15.43,7.89 25.77,10.68 10.34,2.8 21.58,5.38 33.73,7.75 12.15,2.37 23.39,5.73 33.73,10.06 10.33,4.33 18.93,10.27 25.77,17.81 6.84,7.54 10.26,17.88 10.26,31.01 0,20.39 -7.68,35.96 -23.04,46.72 -15.36,10.76 -36.17,16.13 -62.43,16.13 -27.93,0 -50.14,-6.98 -66.62,-20.95 -15.08,-12.29 -23.18,-28.35 -24.3,-48.19l32.68 0c1.95,19.28 12.85,32.26 32.68,38.97 7.26,2.23 14.45,3.35 21.58,3.35 7.12,0 13.76,-0.42 19.9,-1.26 6.15,-0.84 12.15,-2.37 18.02,-4.61 13.41,-5.31 20.11,-14.39 20.11,-27.23 0,-8.66 -3.42,-15.3 -10.26,-19.9 -6.84,-4.61 -15.43,-8.38 -25.77,-11.31 -10.33,-2.93 -21.58,-5.59 -33.73,-7.96 -12.15,-2.37 -23.39,-5.66 -33.73,-9.85 -10.33,-4.19 -18.93,-9.92 -25.77,-17.18 -6.85,-7.26 -10.27,-17.32 -10.27,-30.17 0,-18.99 6.91,-33.73 20.74,-44.2 13.83,-10.48 34.29,-15.71 61.38,-15.71 25.7,0 45.95,6.14 60.76,18.43 12.29,10.33 19.41,24.02 21.37,41.06l-31.84 0zm201.95 0c-2.79,-21.79 -20.32,-32.68 -52.58,-32.68 -32.26,0 -48.39,10.06 -48.39,30.17 0,8.38 3.42,14.74 10.26,19.07 6.85,4.33 15.43,7.89 25.77,10.68 10.34,2.8 21.58,5.38 33.73,7.75 12.15,2.37 23.39,5.73 33.73,10.06 10.33,4.33 18.93,10.27 25.77,17.81 6.84,7.54 10.26,17.88 10.26,31.01 0,20.39 -7.68,35.96 -23.04,46.72 -15.36,10.76 -36.17,16.13 -62.43,16.13 -27.93,0 -50.14,-6.98 -66.62,-20.95 -15.08,-12.29 -23.18,-28.35 -24.3,-48.19l32.68 0c1.95,19.28 12.85,32.26 32.68,38.97 7.26,2.23 14.45,3.35 21.58,3.35 7.12,0 13.76,-0.42 19.9,-1.26 6.15,-0.84 12.15,-2.37 18.02,-4.61 13.41,-5.31 20.11,-14.39 20.11,-27.23 0,-8.66 -3.42,-15.3 -10.26,-19.9 -6.84,-4.61 -15.43,-8.38 -25.77,-11.31 -10.33,-2.93 -21.58,-5.59 -33.73,-7.96 -12.15,-2.37 -23.39,-5.66 -33.73,-9.85 -10.33,-4.19 -18.93,-9.92 -25.77,-17.18 -6.85,-7.26 -10.27,-17.32 -10.27,-30.17 0,-18.99 6.91,-33.73 20.74,-44.2 13.83,-10.48 34.29,-15.71 61.38,-15.71 25.7,0 45.95,6.14 60.76,18.43 12.29,10.33 19.41,24.02 21.37,41.06l-31.84 0zm169.69 -59.5c31.28,0 56.7,10.47 76.26,31.42 18.43,20.11 27.65,45.67 27.65,76.68 0,31 -9.22,56.56 -27.65,76.68 -19.56,20.95 -44.97,31.42 -76.26,31.42 -31.29,0 -56.7,-10.47 -76.26,-31.42 -18.43,-20.11 -27.65,-45.67 -27.65,-76.68 0,-31 9.22,-56.56 27.65,-76.68 19.56,-20.95 44.97,-31.42 76.26,-31.42zm0 187.71c22.62,0 40.5,-7.82 53.63,-23.46 12.57,-14.8 18.85,-33.52 18.85,-56.15 0,-22.63 -6.28,-41.34 -18.85,-56.15 -13.13,-15.64 -31.01,-23.46 -53.63,-23.46 -22.63,0 -40.5,7.82 -53.63,23.46 -12.57,14.8 -18.85,33.52 -18.85,56.15 0,22.63 6.29,41.34 18.85,56.15 13.13,15.64 31.01,23.46 53.63,23.46zm256 -187.71l0 31.42 -3.77 0c-22.63,0 -41.06,9.08 -55.31,27.24 -13.41,17.32 -20.11,37.99 -20.11,62.01l0 92.18 -31.42 0 0 -209.5 31.42 0 0 51.54c6.7,-21.79 21.23,-37.85 43.57,-48.19 9.22,-4.47 20.39,-6.7 33.52,-6.7l2.09 0zm33.94 3.35l31.42 0 0 209.5 -31.42 0 0 -209.5zm32.68 -76.26l0 41.06 -33.94 0 0 -41.06 33.94 0zm216.62 252.23c-16.76,24.58 -41.76,36.87 -75,36.87 -30.17,0 -54.75,-10.47 -73.74,-31.42 -18.43,-20.67 -27.65,-46.23 -27.65,-76.68 0,-30.44 9.22,-56 27.65,-76.68 19,-20.95 44.28,-31.42 75.84,-31.42 31.56,0 55.87,12.43 72.91,37.29l0 -33.94 31.43 0 0 209.5 -31.43 0 0 -33.52zm-70.81 8.38c22.63,0 40.5,-7.82 53.63,-23.46 12.57,-14.8 18.85,-33.52 18.85,-56.15 0,-22.63 -6.29,-41.34 -18.85,-56.15 -13.13,-15.64 -31.01,-23.46 -53.63,-23.46 -22.35,0 -40.5,7.82 -54.47,23.46 -13.13,14.8 -19.69,33.52 -19.69,56.15 0,22.63 6.57,41.34 19.69,56.15 13.97,15.64 32.12,23.46 54.47,23.46z"/>
  <g id="_1624803434624">
   <path class="fil1" d="M6423.87 4479.41l-502.31 502.31c-63.91,63.91 -168.5,63.91 -232.42,-0l-464.87 -464.87c-63.91,-63.92 -63.91,-168.51 0,-232.42l502.3 -502.3c63.91,-63.91 168.5,-63.91 232.42,0l464.87 464.87c63.92,63.91 63.91,168.51 0,232.42z"/>
   <path class="fil1" d="M7390.75 3512.53l-502.31 502.31c-63.91,63.91 -168.5,63.91 -232.42,-0l-464.87 -464.87c-63.92,-63.92 -63.91,-168.51 -0,-232.42l502.31 -502.3c63.91,-63.91 168.5,-63.91 232.42,0l464.87 464.87c63.92,63.92 63.91,168.51 0,232.42z"/>
   <path class="fil1" d="M6453.51 2580.93c-254.63,253.28 -840.76,837.91 -1095.34,1091.19 -101.86,101.33 -190.64,38.83 -190.13,-111.29l0.56 -162.56 1.26 -365.46c6.41,-202.37 12.83,-404.76 19.24,-607.13 3.16,-99.52 -14.7,-94.88 52.61,-165.57l430.99 -453.15c65.57,-68.93 177.54,-67.35 244.9,0.02l539.3 539.3c67.36,67.36 64.09,167.52 -3.4,234.66z"/>
   <path class="fil1" d="M4848.87 3365.61l5.03 568.92c0.8,90.41 -129.25,116.84 -193.12,52.96l-464.87 -464.87c-63.92,-63.92 -63.93,-168.49 0,-232.41l502.31 -502.31c63.9,-63.91 146.35,-18.64 147,71.74l3.65 505.96z"/>
  </g>
 </g>
</svg>
